<svg width="35" height="34" viewBox="0 0 35 34" fill="none" xmlns="http://www.w3.org/2000/svg">
  <mask id="mask0_1389_826" style="mask-type:alpha" maskUnits="userSpaceOnUse" x="0" y="0" width="35" height="34">
    <path fill-rule="evenodd" clip-rule="evenodd" d="M18.5798 2.13203C19.0531 0.547058 20.7247 -0.348622 22.3133 0.131472C25.2092 1.00666 27.9172 2.64843 30.1046 5.03386C36.5801 12.0954 36.1026 23.0273 29.0454 29.4471C21.9929 35.8629 11.0327 35.3489 4.56147 28.292C-1.91397 21.2304 -1.43648 10.2985 5.62067 3.87868C6.84354 2.76623 8.74205 2.85894 9.8611 4.08576C10.9802 5.31257 10.896 7.20893 9.67311 8.32138C5.06297 12.5152 4.75555 19.6458 8.97916 24.2517C13.207 28.8622 20.3783 29.2024 24.993 25.0044C29.6031 20.8106 29.9106 13.68 25.6869 9.07415C24.2532 7.51061 22.4885 6.44213 20.5992 5.87116C19.0106 5.39107 18.1065 3.717 18.5798 2.13203Z" fill="#D9D9D9"/>
    <path fill-rule="evenodd" clip-rule="evenodd" d="M18.5798 2.13203C19.0531 0.547058 20.7247 -0.348622 22.3133 0.131472C25.2092 1.00666 27.9172 2.64843 30.1046 5.03386C36.5801 12.0954 36.1026 23.0273 29.0454 29.4471C21.9929 35.8629 11.0327 35.3489 4.56147 28.292C-1.91397 21.2304 -1.43648 10.2985 5.62067 3.87868C6.84354 2.76623 8.74205 2.85894 9.8611 4.08576C10.9802 5.31257 10.896 7.20893 9.67311 8.32138C5.06297 12.5152 4.75555 19.6458 8.97916 24.2517C13.207 28.8622 20.3783 29.2024 24.993 25.0044C29.6031 20.8106 29.9106 13.68 25.6869 9.07415C24.2532 7.51061 22.4885 6.44213 20.5992 5.87116C19.0106 5.39107 18.1065 3.717 18.5798 2.13203Z" fill="url(#paint0_linear_1389_826)" fill-opacity="0.2"/>
    <path d="M13.893 17.7419C12.3764 17.0004 11.771 15.1813 12.5407 13.6788L18.6813 1.69171C19.4509 0.189266 21.3043 -0.427564 22.8208 0.313985C24.3373 1.05553 24.9427 2.87465 24.1731 4.3771L18.0324 16.3642C17.2628 17.8667 15.4095 18.4835 13.893 17.7419Z" fill="#B4B4B4"/>
    <path d="M13.893 17.7419C12.3764 17.0004 11.771 15.1813 12.5407 13.6788L18.6813 1.69171C19.4509 0.189266 21.3043 -0.427564 22.8208 0.313985C24.3373 1.05553 24.9427 2.87465 24.1731 4.3771L18.0324 16.3642C17.2628 17.8667 15.4095 18.4835 13.893 17.7419Z" fill="url(#paint1_linear_1389_826)" fill-opacity="0.2"/>
  </mask>
  <g mask="url(#mask0_1389_826)">
    <path fill-rule="evenodd" clip-rule="evenodd" d="M18.5798 2.13203C19.0531 0.547058 20.7247 -0.348622 22.3133 0.131472C25.2092 1.00666 27.9172 2.64843 30.1046 5.03386C36.5801 12.0954 36.1026 23.0273 29.0454 29.4471C21.9929 35.8629 11.0327 35.3489 4.56147 28.292C-1.91397 21.2304 -1.43648 10.2985 5.62067 3.87868C6.84354 2.76623 8.74205 2.85894 9.8611 4.08576C10.9802 5.31257 10.896 7.20893 9.67311 8.32138C5.06297 12.5152 4.75555 19.6458 8.97916 24.2517C13.207 28.8622 20.3783 29.2024 24.993 25.0044C29.6031 20.8106 29.9106 13.68 25.6869 9.07415C24.2532 7.51061 22.4885 6.44213 20.5992 5.87116C19.0106 5.39107 18.1065 3.717 18.5798 2.13203Z" fill="white" fill-opacity="0.2"/>
    <path d="M13.893 17.7419C12.3764 17.0004 11.771 15.1813 12.5407 13.6788L18.6813 1.69171C19.4509 0.189266 21.3043 -0.427564 22.8208 0.313985C24.3373 1.05553 24.9427 2.87465 24.1731 4.3771L18.0324 16.3642C17.2628 17.8667 15.4095 18.4835 13.893 17.7419Z" fill="white" fill-opacity="0.2"/>
    <path fill-rule="evenodd" clip-rule="evenodd" d="M18.5798 2.13203C19.0531 0.547058 20.7247 -0.348622 22.3133 0.131472C25.2092 1.00666 27.9172 2.64843 30.1046 5.03386C36.5801 12.0954 36.1026 23.0273 29.0454 29.4471C21.9929 35.8629 11.0327 35.3489 4.56147 28.292C-1.91397 21.2304 -1.43648 10.2985 5.62067 3.87868C6.84354 2.76623 8.74205 2.85894 9.8611 4.08576C10.9802 5.31257 10.896 7.20893 9.67311 8.32138C5.06297 12.5152 4.75555 19.6458 8.97916 24.2517C13.207 28.8622 20.3783 29.2024 24.993 25.0044C29.6031 20.8106 29.9106 13.68 25.6869 9.07415C24.2532 7.51061 22.4885 6.44213 20.5992 5.87116C19.0106 5.39107 18.1065 3.717 18.5798 2.13203Z" fill="#D9D9D9"/>
    <path fill-rule="evenodd" clip-rule="evenodd" d="M18.5798 2.13203C19.0531 0.547058 20.7247 -0.348622 22.3133 0.131472C25.2092 1.00666 27.9172 2.64843 30.1046 5.03386C36.5801 12.0954 36.1026 23.0273 29.0454 29.4471C21.9929 35.8629 11.0327 35.3489 4.56147 28.292C-1.91397 21.2304 -1.43648 10.2985 5.62067 3.87868C6.84354 2.76623 8.74205 2.85894 9.8611 4.08576C10.9802 5.31257 10.896 7.20893 9.67311 8.32138C5.06297 12.5152 4.75555 19.6458 8.97916 24.2517C13.207 28.8622 20.3783 29.2024 24.993 25.0044C29.6031 20.8106 29.9106 13.68 25.6869 9.07415C24.2532 7.51061 22.4885 6.44213 20.5992 5.87116C19.0106 5.39107 18.1065 3.717 18.5798 2.13203Z" fill="url(#paint2_linear_1389_826)" fill-opacity="0.2"/>
    <path d="M13.893 17.7419C12.3764 17.0004 11.771 15.1813 12.5407 13.6788L18.6813 1.69171C19.4509 0.189266 21.3043 -0.427564 22.8208 0.313985C24.3373 1.05553 24.9427 2.87465 24.1731 4.3771L18.0324 16.3642C17.2628 17.8667 15.4095 18.4835 13.893 17.7419Z" fill="#B4B4B4"/>
    <path d="M13.893 17.7419C12.3764 17.0004 11.771 15.1813 12.5407 13.6788L18.6813 1.69171C19.4509 0.189266 21.3043 -0.427564 22.8208 0.313985C24.3373 1.05553 24.9427 2.87465 24.1731 4.3771L18.0324 16.3642C17.2628 17.8667 15.4095 18.4835 13.893 17.7419Z" fill="url(#paint3_linear_1389_826)" fill-opacity="0.2"/>
    <g style="mix-blend-mode:color">
      <path d="M-71 -10.0557H52V48.9443H-71V-10.0557Z" fill="url(#paint4_radial_1389_826)"/>
    </g>
  </g>
  <defs>
    <linearGradient id="paint0_linear_1389_826" x1="29.8466" y1="9.66718" x2="10.7165" y2="10.5046" gradientUnits="userSpaceOnUse">
      <stop stop-color="#211818"/>
      <stop offset="1" stop-opacity="0"/>
    </linearGradient>
    <linearGradient id="paint1_linear_1389_826" x1="9.6027" y1="27.7196" x2="23.025" y2="0.242981" gradientUnits="userSpaceOnUse">
      <stop offset="0.125"/>
      <stop offset="1" stop-opacity="0"/>
    </linearGradient>
    <linearGradient id="paint2_linear_1389_826" x1="29.8466" y1="9.66718" x2="10.7165" y2="10.5046" gradientUnits="userSpaceOnUse">
      <stop stop-color="#211818"/>
      <stop offset="1" stop-opacity="0"/>
    </linearGradient>
    <linearGradient id="paint3_linear_1389_826" x1="9.6027" y1="27.7196" x2="23.025" y2="0.242981" gradientUnits="userSpaceOnUse">
      <stop offset="0.125"/>
      <stop offset="1" stop-opacity="0"/>
    </linearGradient>
    <radialGradient id="paint4_radial_1389_826" cx="0" cy="0" r="1" gradientUnits="userSpaceOnUse" gradientTransform="translate(-8.93606 13.9714) rotate(-90) scale(81.0144 168.894)">
      <stop offset="0.109375" stop-color="#BEFF7C"/>
      <stop offset="0.421875" stop-color="#82EDCD"/>
    </radialGradient>
  </defs>
</svg>
